<svg xmlns="http://www.w3.org/2000/svg" viewBox="0 0 512 512" fill="currentColor">
  <path d="M252.81029,14.9738c-138.254,0-244.01284,104.96141-244.01284,243.21542,0,110.54339,69.57556,205.13823,168.955,238.43086,12.75884,2.29259,17.24437-5.582,17.24437-12.0611,0-6.18008-.299-40.27009-.299-61.20256,0,0-69.77491,14.95177-84.42764-29.70417,0,0-11.36334-29.00643-27.71061-36.48232,0,0-22.82637-15.64952,1.59485-15.35047,0,0,24.81994,1.99357,38.47588,25.717,21.82958,38.47588,58.41156,27.41157,72.6656,20.83279,2.29261-15.94856,8.77171-27.01287,15.94855-33.59165-55.72024-6.18008-111.9389-14.254-111.9389-110.14469,0-27.41157,7.57556-41.1672,23.52411-58.7106-2.59163-6.4791-11.0643-33.19293,2.59164-67.68167,20.83279-6.4791,68.77813,26.91319,68.77813,26.91319a235.48093,235.48093,0,0,1,125.19614,0s47.94534-33.492,68.77813-26.91318c13.656,34.58842,5.18329,61.20256,2.59165,67.68166,15.94855,17.64308,25.717,31.39871,25.717,58.7106,0,96.1897-58.7106,103.86493-114.43084,110.14469,9.17043,7.87459,16.94533,22.82636,16.94533,46.25079,0,33.59165-.299,75.15755-.299,83.33119,0,6.4791,4.58521,14.35369,17.24436,12.0611,99.67845-33.09326,167.26042-127.6881,167.26042-238.23149C503.20255,119.93521,391.0643,14.9738,252.81029,14.9738Z"/>
</svg>
