<svg xmlns="http://www.w3.org/2000/svg" viewBox="0 0 512 512" fill="currentColor">
  <g>
    <path d="M303.40565,19.08771c4.783,23.06974-17.37527,29.54425-1.32226,54.02735-5.02466-33.5846,22.875-38.62891,28.03174-49.11579C329.09057,5.6056,305.9531-4.27047,291.10878,1.83082A29.233,29.233,0,0,1,303.40565,19.08771Z"/>
    <path d="M440.14136,102.21631c-.13257-.26526-.26416-.39819-.26416-.6637-.13257.13294-.13257.13294-.13257.26532,0-.13293,0-.13293-.13257-.26532-.97352,57.41544-63.55676,100.15109-117.54761,81.77075C421.19138,174.587,437.1175,40.2897,343.48511,7.56854V7.56781c.35106,17.60916-10.59728,26.15978-24.19793,34.513-11.99971,8.95577-16.41061,26.69094-9.65071,40.09-60.07553-26.25894-135.96261-34.6015-194.50333-.66539-19.49149,11.0826-30.73037,32.1513-50.77364,42.612C48.674,134.91544,27.01983,131.3284,12.791,143.098,4.27908,150.17613-.38281,161.8099.09824,172.70231c1.79812,10.12975,11.21491,16.67337,19.96646,21.107a33.38875,33.38875,0,0,0,25.12292,27.34582c-1.334,20.161.42919,22.5488,13.35486,1.593-.79333,9.15942-1.32227,19.91174,0,23.09772,1.45447,3.31854,9.38794-7.03559,16.26367-18.45166,93.74732-21.77015,179.29688,43.275,188.28809,135.13476-1.719-14.33649-19.30493-22.30121-27.37036-20.31-3.9668,9.82312-10.71045,22.4339-21.55274,30.26593a85.444,85.444,0,0,0-1.32226-26.54907,85.98807,85.98807,0,0,1-16.396,33.45184c-18.91034,1.82051-43.776-15.583-31.6022-34.91248,5.83054-13.17118-4.9912-18.13714-15.60332-18.18513-47.19757,3.36791-33.9563,70.65951-7.00688,85.62056-8.21188,1.60227-16.07443,3.00826-18.51123,5.17682,10.03466,6.95425,29.938,13.01712,39.27075,15.26569v.13293c69.11333,15.21834,139.00774-34.79871,148.62085-105.39984C317.90559,353.69505,314.44,382.08756,303.553,407h-.13257a126.23819,126.23819,0,0,1-46.54272,54.55829l.39648.79645A247.44,247.44,0,0,0,321.668,444.6994a211.92966,211.92966,0,0,1-82.11157,67.30188c70.65357-4.08507,136.16862-46.235,170.041-108.05469a212.3345,212.3345,0,0,1-35.56836,85.35529c48.65619-31.93293,82.17738-84.87274,90.97071-142.3031a212.19772,212.19772,0,0,1,3.83447,63.98328C564.30054,277.30743,476.76782,138.72131,440.14136,102.21631Z"/>
  </g>
</svg>
