<svg xmlns="http://www.w3.org/2000/svg" viewBox="0 0 512 512" fill="currentColor">
  <path d="M427.54712,189.31683C454.36279,173.54211,488,136.7951,488,104c0-49.58221-46.41785-88-96-88-80.32635,0-88.98126,64.11029-88.98126,113.6925l.00006.02741a3.83872,3.83872,0,0,1-5.19977,3.61072C283.85907,127.91907,270.28406,128,256,128s-27.85907-.08093-41.819,5.33063a3.83872,3.83872,0,0,1-5.19977-3.61072l.00006-.02741C208.98126,80.11029,200.32635,16,120,16c-49.58215,0-96,38.41779-96,88,0,32.7951,33.63721,69.54211,60.45288,85.31683a3.7632,3.7632,0,0,1,.75513,5.90259C50.5282,230.21075,32,277.968,32,328c0,168,98.73969,168,224,168s224,0,224-168c0-50.032-18.5282-97.78925-53.208-132.78058A3.7632,3.7632,0,0,1,427.54712,189.31683ZM63.98126,104c0-32,24-48,56-48s48,19.1994,48,48c0,24-7.98126,56-47.98126,56C91.1994,160,63.98126,136,63.98126,104ZM180.5,351A47.5,47.5,0,1,1,228,303.5,47.5,47.5,0,0,1,180.5,351Zm142,0A47.5,47.5,0,1,1,370,303.5,47.5,47.5,0,0,1,322.5,351Zm21.51874-247c0-28.8006,16-48,48-48s56,16,56,48S420.8006,160,392,160C352,160,344.01874,128,344.01874,104Z"/>
</svg>
