<svg xmlns="http://www.w3.org/2000/svg" viewBox="0 0 512 512" fill="#642102">
  <defs>
    <style>
      .a {
        fill: #ff7b00;
      }
    </style>
  </defs>
  <path d="M427.54712,189.31683C454.36279,173.54211,488,136.7951,488,104c0-49.58221-46.41785-88-96-88-80.32635,0-88.98126,64.11029-88.98126,113.6925l.00006.02741a3.83872,3.83872,0,0,1-5.19977,3.61072C283.85907,127.91907,270.28406,128,256,128s-27.85907-.08093-41.819,5.33063a3.83872,3.83872,0,0,1-5.19977-3.61072l.00006-.02741C208.98126,80.11029,200.32635,16,120,16c-49.58215,0-96,38.41779-96,88,0,32.7951,33.63721,69.54211,60.45288,85.31683a3.7632,3.7632,0,0,1,.75513,5.90259C50.5282,230.21075,32,277.968,32,328c0,168,98.73969,168,224,168s224,0,224-168c0-50.032-18.5282-97.78925-53.208-132.78058A3.7632,3.7632,0,0,1,427.54712,189.31683ZM120,160c-28.8006,0-56.01874-24-56.01874-56s24-48,56-48,48,19.1994,48,48C167.98126,128,160,160,120,160Zm224.01874-56c0-28.8006,16-48,48-48s56,16,56,48S420.8006,160,392,160C352,160,344.01874,128,344.01874,104Z"/>
  <g>
    <circle class="a" cx="322.5" cy="303.5" r="47.5"/>
    <circle class="a" cx="180.5" cy="303.5" r="47.5"/>
  </g>
</svg>
